
<svg xmlns="http://www.w3.org/2000/svg" version="1.1" id="svg2" xml:space="preserve" width="700.01843" height="700" viewBox="0 0 700.01845 699.99998"><defs id="defs6"><clipPath clipPathUnits="userSpaceOnUse" id="clipPath18"><path d="M 0,853.228 H 606.619 V 0 H 0 Z" id="path16"></path></clipPath></defs><g id="g10" transform="matrix(1.3333333,0,0,-1.3333333,-326.91068,570.10414)"><g id="g3239" transform="matrix(3.4498168,0,0,3.4498168,-600.65342,-1047.488)"><g id="g3121"><g id="g3004"><g id="g2888"><g id="g2773"><path style="fill:#003893;fill-opacity:1;fill-rule:nonzero;stroke:none" d="m 321.269,427.5781 c -42.016,0 -76.086,-34.065 -76.086,-76.089 0,-42.024 34.07,-76.093 76.086,-76.093 40.601,0 76.1,35.5 76.1,76.093 0,42.024 -34.061,76.089 -76.1,76.089" id="path208"></path><path style="fill:#ffffff;fill-opacity:1;fill-rule:nonzero;stroke:none" d="m 321.334,277.8481 c -40.724,0 -73.743,33.015 -73.743,73.742 0,40.722 33.019,73.745 73.743,73.745 40.724,0 73.726,-33.023 73.726,-73.745 0,-39.329 -34.4,-73.742 -73.726,-73.742" id="path1893"></path><g id="g110" transform="translate(320.3169,413.1982)"><path d="M 0,0 C -0.168,7.329 -7.046,7.04 -7.046,7.04 -14.524,6.71 -14.086,0 -14.086,0 c 0.835,-7.701 7.04,-7.046 7.04,-7.046 C 0.32,-7.046 0,0 0,0 m -7.046,-5.137 c 0,0 -4.291,0.203 -4.839,5.137 0,0 -0.228,4.517 4.839,5.131 0,0 5.148,-0.742 4.858,-5.131 0,0 0.481,-4.798 -4.858,-5.137" style="fill:#00a755;fill-opacity:1;fill-rule:nonzero;stroke:none" id="path112"></path></g><g id="g114" transform="translate(326.1929,416.8125)"><path d="M 0,0 5.602,-11.144 H 7.537 L 9.035,2.431 H 7.123 L 5.884,-7.253 0.343,3.426 h -1.911 l -1.496,-13.585 h 2.159 z" style="fill:#00a755;fill-opacity:1;fill-rule:nonzero;stroke:none" id="path116"></path></g><g id="g118" transform="translate(336.3843,404.916)"><path d="M 0,0 2.965,3.146 7.728,1.236 7.832,-2.977 9.938,-3.889 10.026,10.638 8.201,11.596 -1.905,0.874 Z M 7.99,8.484 7.696,3.439 4.474,5.017 Z" style="fill:#00a755;fill-opacity:1;fill-rule:nonzero;stroke:none" id="path120"></path></g><g id="g122" transform="translate(353.4028,398.915)"><path d="M 0,0 -3.771,2.315 2.037,12.375 0.331,13.623 -6.546,1.739 -0.951,-1.493 Z" style="fill:#00a755;fill-opacity:1;fill-rule:nonzero;stroke:none" id="path124"></path></g><g id="g126" transform="translate(365.814,388.4775)"><path d="M 0,0 8.664,7.824 7.258,9.189 -0.604,2.071 c 0,0 -1.781,-0.662 -2.571,0.706 0,0 -1.119,1.119 -0.326,2.235 L 3.782,12.588 2.376,14.07 -5.46,6.379 c 0,0 -1.683,-2.316 0.546,-4.721 0,0 2.114,-2.775 4.914,-1.658" style="fill:#00a755;fill-opacity:1;fill-rule:nonzero;stroke:none" id="path128"></path></g><g id="g130" transform="translate(367.147,383.3027)"><path d="M 0,0 8.572,5.628 3.69,-5.593 4.687,-6.955 16.201,0.251 15.198,2.031 6.837,-3.314 11.348,7.451 10.274,9.103 -1.161,1.571 Z" style="fill:#00a755;fill-opacity:1;fill-rule:nonzero;stroke:none" id="path132"></path></g><g id="g134" transform="translate(373.4048,372.1611)"><path d="M 0,0 12.712,5.012 12.012,6.831 -0.87,1.744 Z" style="fill:#00a755;fill-opacity:1;fill-rule:nonzero;stroke:none" id="path136"></path></g><g id="g138" transform="translate(375.5991,365.251)"><path d="M 0,0 14.734,-1.041 14.699,0.699 3.568,1.61 12.129,7.941 11.42,10.017 -0.252,1.072 Z" style="fill:#00a755;fill-opacity:1;fill-rule:nonzero;stroke:none" id="path140"></path></g><g id="g142" transform="translate(377.2085,352.4932)"><path d="M 0,0 2.036,-0.04 1.784,5.175 5.755,5.422 6.165,0.287 8.082,0.414 7.704,5.422 11.753,5.84 11.931,0.702 13.959,0.743 13.381,8.037 -0.419,6.919 Z" style="fill:#00a755;fill-opacity:1;fill-rule:nonzero;stroke:none" id="path144"></path></g><g id="g146" transform="translate(385.0288,337.0713)"><path d="m 0,0 c 0,0 -2.085,0.369 -3.983,-2.764 0,0 -0.861,-2.337 -3.531,-0.839 0,0 -1.96,1.338 0.319,3.418 l 2.2,0.118 -0.067,2.111 -2.452,-0.092 c 0,0 -2.894,-0.743 -2.769,-4.062 0,0 -0.209,-4.042 4.63,-4.131 0,0 2.386,-0.13 3.568,2.262 0,0 0.81,2.02 1.992,2.02 0,0 1.751,0.01 2.015,-1.707 0,0 0.441,-2.454 -2.673,-1.895 l -0.023,-1.892 c 0,0 4.466,-1.057 4.655,3.814 0,0 0.317,3.202 -3.881,3.639" style="fill:#00a755;fill-opacity:1;fill-rule:nonzero;stroke:none" id="path148"></path></g><g id="g150" transform="translate(372.3345,328.6875)"><path d="M 0,0 12.568,-5.467 13.724,-3.763 0.737,1.896 Z" style="fill:#00a755;fill-opacity:1;fill-rule:nonzero;stroke:none" id="path152"></path></g><g id="g154" transform="translate(380.8052,319.6143)"><path d="M 0,0 -10.25,5.649 -11.369,4.069 -1.026,-1.979 -2.395,-4.04 -0.718,-4.991 2.985,0.863 1.378,2.078 Z" style="fill:#00a755;fill-opacity:1;fill-rule:nonzero;stroke:none" id="path156"></path></g><g id="g158" transform="translate(365.8647,318.3965)"><path d="m 0,0 -1.33,-1.452 4.005,-3.042 4.284,-8.664 1.461,1.546 -3.229,6.439 7.168,-1.495 1.152,1.526 -9.348,1.929 z" style="fill:#00a755;fill-opacity:1;fill-rule:nonzero;stroke:none" id="path160"></path></g><g id="g162" transform="translate(272.4263,313.4102)"><path d="M 0,0 2.297,7.54 0.558,9.465 -1.754,1.515 -10.253,1.418 -8.95,-0.437 -0.474,-0.504 -5.719,-4.573 -4.644,-6.22 6.423,2.079 5.152,3.592 Z" style="fill:#00a755;fill-opacity:1;fill-rule:nonzero;stroke:none" id="path164"></path></g><g id="g166" transform="translate(266.7349,339.2686)"><path d="m 0,0 -10.243,-1.707 8.959,7.951 -0.266,2.21 -13.658,-2.27 0.266,-1.951 9.972,1.553 -8.723,-7.829 0.238,-2.15 13.678,1.928 z" style="fill:#00a755;fill-opacity:1;fill-rule:nonzero;stroke:none" id="path168"></path></g><g id="g170" transform="translate(258.6333,349.9639)"><path d="m 0,0 c 7.815,0.369 7.05,7.04 7.05,7.04 0.271,6.393 -6.654,6.835 -6.654,6.835 L -0.316,5.488 1.583,5.211 2.136,11.172 C 5.682,10.308 5.123,6.921 5.123,6.921 4.222,1.698 -0.283,2.23 -0.283,2.23 c -5.155,0.623 -4.845,4.747 -4.845,4.747 0.378,3.361 2.03,3.761 2.03,3.761 l 0.173,2.393 C -7.739,11.857 -7.341,6.824 -7.341,6.824 -6.304,-0.284 0,0 0,0" style="fill:#00a755;fill-opacity:1;fill-rule:nonzero;stroke:none" id="path172"></path></g><g id="g174" transform="translate(265.9546,368.1211)"><path d="m 0,0 c 0,0 0.373,-1.95 -1.958,-1.549 l -0.521,-1.929 1.857,-0.03 c 0,0 2.431,0.03 2.652,3.396 0,0 0.456,2.289 -2.547,3.781 l -10.038,3.104 -0.618,-1.952 9.467,-3.109 c 0,0 1.801,-0.31 1.706,-1.712" style="fill:#00a755;fill-opacity:1;fill-rule:nonzero;stroke:none" id="path176"></path></g><g id="g178" transform="translate(271.4214,376.042)"><path d="m 0,0 c 0,0 2.306,3.051 -0.49,5.717 l -9.667,5.06 -0.962,-1.767 8.88,-4.749 c 0,0 2.026,-1.091 0.375,-3.14 0,0 -0.558,-1.867 -3.158,-0.403 l -8.269,4.25 -0.897,-1.771 9.215,-4.905 c 0,0 3.424,-1.023 4.973,1.708" style="fill:#00a755;fill-opacity:1;fill-rule:nonzero;stroke:none" id="path180"></path></g><g id="g182" transform="translate(279.3413,388.5898)"><path d="M 0,0 -6.989,7.302 5.154,4.629 6.271,5.81 -3.197,15.594 -4.536,14.381 2.265,7.083 -9.588,9.781 l -1.346,-1.364 9.451,-9.85 z" style="fill:#00a755;fill-opacity:1;fill-rule:nonzero;stroke:none" id="path184"></path></g><g id="g186" transform="translate(288.0435,396.1133)"><path d="M 0,0 -0.84,4.21 3.451,6.82 7.102,4.371 8.82,5.462 -3.017,14.183 -4.69,13.194 -1.868,-1.187 Z m 1.838,8.158 -3.251,-1.919 -1.018,4.996 z" style="fill:#00a755;fill-opacity:1;fill-rule:nonzero;stroke:none" id="path188"></path></g><g id="g190" transform="translate(293.2251,412.6934)"><path d="M 0,0 4.845,-10.808 6.867,-9.914 2.02,0.771 4.284,1.952 3.48,3.627 -2.984,0.616 -2.229,-0.96 Z" style="fill:#00a755;fill-opacity:1;fill-rule:nonzero;stroke:none" id="path192"></path></g><g id="g194" transform="translate(305.6196,404.5264)"><path d="M 0,0 -3.639,13.224 -5.845,12.605 -2.237,-0.688 Z" style="fill:#00a755;fill-opacity:1;fill-rule:nonzero;stroke:none" id="path196"></path></g><g id="g198" transform="translate(377.5405,349.8828)"><path d="M 0,0 -0.146,-2.16 5.653,-2.775 -0.961,-6.507 -1.048,-8.872 4.69,-5.95 c -0.119,-4.41 4.631,-4.16 4.631,-4.16 4.355,0.057 4.311,5.716 4.311,5.716 l 0.198,2.822 z m 8.851,-8.188 c 0,0 -3.414,-0.182 -2.413,5.251 l 5.27,-0.496 c 0,0 0.338,-4.571 -2.857,-4.755" style="fill:#00a755;fill-opacity:1;fill-rule:nonzero;stroke:none" id="path200"></path></g><g id="g202" transform="translate(263.6636,319.3955)"><path d="M 0,0 C 7.701,0.158 7.513,7.209 7.513,7.209 7.427,13.916 0.146,14.161 0.146,14.161 -7.464,13.137 -6.907,6.927 -6.907,6.927 -6.37,-0.374 0,0 0,0 m -4.788,6.84 c 0,0 -0.12,4.378 5,5.12 0,0 4.602,0.098 5.09,-4.729 0,0 0.296,-4.715 -5.276,-5.055 0,0 -4.438,-0.032 -4.814,4.664" style="fill:#00a755;fill-opacity:1;fill-rule:nonzero;stroke:none" id="path204"></path></g><g id="g210" transform="translate(321.3882,300.9775)"><path d="M 0,0 C 20.186,1.045 32.431,8.741 39.885,17.825 L -40.778,17.783 C -25.476,-1.449 0,0 0,0 m 8.823,12.506 c 0,0 -0.12,2.859 2.937,2.695 0,0 2.702,0.289 2.903,-2.735 0,0 0.207,-1.234 -0.986,-1.989 0,0 1.609,-1.113 1.483,-2.893 0,0 0.126,-3.19 -3.306,-3.407 0,0 -3.195,-0.121 -3.479,3.323 0,0 -0.086,2.153 1.446,2.811 0,0 -1.118,0.545 -0.998,2.195 m -9.646,-4.84 4.722,7.337 H 5.474 V 7.584 H 6.628 V 6.169 H 5.509 V 4.56 H 4.177 v 1.609 h -5 z m -3.894,7.609 c 0,0 3.73,0.099 3.73,-4.083 0,0 -0.746,-2.657 -4.013,-6.681 h -1.537 l 1.988,3.278 c 0,0 -4.139,-0.289 -4.022,3.765 0,0 0.118,3.931 3.854,3.721 M -10.12,15.221 V 4.54 h -1.609 v 9.248 h -1.867 l -0.065,1.433 z" style="fill:#003893;fill-opacity:1;fill-rule:nonzero;stroke:none" id="path212"></path></g><g id="g214" transform="translate(321.3882,402.3525)"><path d="m 0,0 c -51.176,-3.486 -51.931,-50.69 -51.931,-50.69 0.702,-12.673 3.993,-22.159 8.592,-29.301 l 85.917,0.042 C 51.832,-66.1 51.436,-50.69 51.436,-50.69 48.947,0 0,0 0,0 m -0.238,-1.992 30.383,-29.236 h -6.376 l -24.172,23.03 -24.112,-23.197 h -6.041 z M 17.65,-31.228 h -36.029 l 18.053,17.143 z m 20.987,-44.919 h -77.764 v 3.595 h 77.764 z m -59.439,23.59 5.645,11.812 c -0.12,-1.181 2.201,-1.372 2.201,-1.372 0.81,-0.246 1.476,0.628 1.476,0.628 0.56,-2.556 -2.116,-4.6 -2.116,-4.6 -0.647,-1.182 -3.038,0.117 -3.038,0.117 l -2.491,-6.393 c 2.12,-0.441 3.116,-5.958 3.116,-5.958 1.541,-5.841 2.603,-6.65 2.603,-6.65 0.681,-1.434 2.426,-0.8 2.426,-0.8 -1.307,-1.504 -2.681,-4.728 -2.681,-4.728 -3.29,-0.933 -4.529,6.953 -4.529,6.953 -0.868,5.158 -2.612,7.577 -2.612,7.577 -0.428,-7.943 -4.045,-6.707 -4.045,-6.707 1.867,0.686 0.817,14.788 0.817,14.788 0.678,5.839 4.092,5.839 4.092,5.839 -1.862,-1.057 -0.864,-10.506 -0.864,-10.506 m -8.393,-4.402 c 0,0 -0.67,1.114 -2.597,-1.115 0,0 -1.812,5.401 2.54,5.152 l 0.195,1.987 c 0,0 0.426,3.284 3.908,4.473 0,0 -0.693,-1.492 -0.612,-2.423 l -0.135,-11.251 c 0,0 -0.867,-5.08 -4.226,-4.837 0,0 1.558,1.059 0.927,8.014 m 10.137,-9.253 0.43,0.306 0.743,-0.617 c 0,0 -2.732,-3.297 -3.046,-4.232 0,0 -0.808,0.254 -1.366,0.935 0,0 -2.787,2.612 -9.374,-0.125 0,0 5.029,9.381 12.613,3.733 m -7.644,21.304 c 0,0 -1.929,0.055 -2.984,0.617 0,0 -0.436,0.5 -3.037,-0.562 0,0 0.614,4.726 4.785,4.17 0,0 3.35,-1.368 4.72,-0.557 0,0 -0.509,-3.552 -3.484,-3.668 m 18.998,-13.607 c 0,0 -0.749,-0.44 -0.749,2.544 0,0 0.084,2.802 2.684,2.426 v 8.513 c 0,0 -1.867,1.612 -3.484,-2.428 0,0 -0.867,-0.061 -0.437,3.169 0,0 1.002,3.546 3.921,3.359 0,0 4.41,1.422 7.948,-10.064 0,0 0.724,-3.108 4.472,-0.872 v 5.591 c 0,0 -1.544,0.063 -1.846,0.622 0,0 -0.775,1.18 -1.937,0.306 0,0 0.674,1.434 3.163,4.417 0,0 2.761,-2.738 5.278,-0.44 0,0 1.367,-2.919 -3.349,-4.842 v -24.343 c 0,0 -2.857,-0.877 -6.22,10.421 0,0 -3.287,2.626 -6.271,0.126 l -0.186,-4.716 c 0,0 2.865,0.126 4.546,-1.866 l 0.42,0.561 0.751,-0.756 -2.918,-4.022 c 0,0 -3.727,3.907 -8.266,0.743 0,0 0.316,4.223 4.351,5.023 v 7.585 c 0,0 -1.673,0.442 -1.871,-1.057 m 29.765,-7.083 v 24.853 h 1.051 v -4.667 l 4.722,4.346 c 0,0 2.047,-3.908 3.603,-2.102 0,0 0.683,-1.556 -1.808,-3.109 l -0.047,-17.761 c 0,0 0.047,-2.749 2.657,-1.926 l -2.424,-4.593 c 0,0 -2.414,-0.309 -3.465,4.345 0,0 -3.795,-2.551 -5.289,-4.543 0,0 -4.311,4.103 -7.574,1.558 0,0 -0.131,3.166 3.851,4.727 l -0.067,7.693 c 0,0 -1.798,1.182 -2.541,-1.119 0,0 -0.501,0.251 -0.681,2.234 0,0 -0.067,3.733 3.222,3.051 v 5.34 c 0,0 -1.607,5.089 -5.343,0.124 0,0 -0.866,6.328 4.593,6.215 0,0 3.926,0.369 4.164,-5.402 l -0.063,-18.639 c 0,0 1.182,-0.07 1.439,-0.625 m 20.186,27.203 h -84.852 v 3.232 h 84.852 z" style="fill:#003893;fill-opacity:1;fill-rule:nonzero;stroke:none" id="path216"></path></g><g id="g218" transform="translate(328.3521,375.3516)"><path d="m 0,0 -7.29,7.039 -7.123,-7.123 z" style="fill:#003893;fill-opacity:1;fill-rule:nonzero;stroke:none" id="path220"></path></g><g id="g222" transform="translate(322.3882,344.2783)"><path d="M 0,0 C -3.164,11.669 -5.781,12.605 -5.781,12.605 L -5.717,-0.38 C -3.723,1.362 0,0 0,0" style="fill:#003893;fill-opacity:1;fill-rule:nonzero;stroke:none" id="path224"></path></g><g id="g226" transform="translate(328.0396,348.9287)"><path d="M 0,0 C -1.614,-1.059 -3.667,-0.249 -3.667,-0.249 -2.239,-6.771 0,-9.933 0,-9.933 Z" style="fill:#003893;fill-opacity:1;fill-rule:nonzero;stroke:none" id="path228"></path></g><g id="g230" transform="translate(347.6704,351.2314)"><path d="M 0,0 V 4.907 C -0.813,5.466 -1.369,6.329 -1.369,6.329 L -3.106,4.844 V 0.431 C -2.486,-0.747 0,0 0,0" style="fill:#003893;fill-opacity:1;fill-rule:nonzero;stroke:none" id="path232"></path></g><g id="g234" transform="translate(347.7378,344.2783)"><path d="m 0,0 -0.067,5.648 c 0,0 -1.425,-0.683 -3.17,-0.06 V 0 c 0,0 1.241,0.736 3.237,0" style="fill:#003893;fill-opacity:1;fill-rule:nonzero;stroke:none" id="path236"></path></g><g id="g238" transform="translate(347.6001,337.627)"><path d="M 0,0 0.097,5.371 C -0.997,6.42 -3.206,5.408 -3.206,5.408 l 0.17,-7.206 C -3.036,-2.36 0,0 0,0" style="fill:#003893;fill-opacity:1;fill-rule:nonzero;stroke:none" id="path240"></path></g><g id="g242" transform="translate(316.6304,310.2178)"><path d="M 0,0 C 2.439,0.364 2.206,2.194 2.206,2.194 2.035,4.382 0,4.426 0,4.426 -2.025,4.679 -2.228,2.231 -2.228,2.231 -2.321,0.158 0,0 0,0" style="fill:#003893;fill-opacity:1;fill-rule:nonzero;stroke:none" id="path244"></path></g><g id="g246" transform="translate(322.437,308.5615)"><path d="M 0,0 H 3.058 V 5.085 L 0,0.578 Z" style="fill:#003893;fill-opacity:1;fill-rule:nonzero;stroke:none" id="path248"></path></g><g id="g250" transform="translate(333.1479,311.9971)"><path d="M 0,0 C 1.376,0.032 1.331,1.366 1.331,1.366 1.376,2.693 0,2.899 0,2.899 -1.605,2.693 -1.354,1.414 -1.354,1.414 -1.481,0.009 0,0 0,0" style="fill:#003893;fill-opacity:1;fill-rule:nonzero;stroke:none" id="path252"></path></g><g id="g254" transform="translate(333.1479,306.4854)"><path d="M 0,0 C 2.08,0.467 1.823,2.106 1.823,2.106 1.704,4.021 -0.035,3.941 -0.035,3.941 -1.819,3.981 -1.853,2.158 -1.853,2.158 -2.016,0.29 0,0 0,0" style="fill:#003893;fill-opacity:1;fill-rule:nonzero;stroke:none" id="path256"></path></g><g id="g266" transform="translate(296.8398,296.6045)"><path d="m 0,0 2.07,4.353 c 0,0 0.683,1.437 -1.07,2.321 -1.751,0.887 -7.874,3.753 -7.874,3.753 L -7.57,8.962 0.365,5.189 -1.715,0.815 -4.953,2.354 -3.73,4.927 -5.403,5.723 -6.626,3.149 -10.379,4.934 -11.072,3.476 0.08,-1.825 0.772,-0.368 Z" style="fill:#00a755;fill-opacity:1;fill-rule:nonzero;stroke:none" id="path268"></path></g><g id="g270" transform="translate(296.8398,296.6045)"><path d="m 0,0 2.07,4.353 c 0,0 0.683,1.437 -1.07,2.321 -1.751,0.887 -7.874,3.753 -7.874,3.753 L -7.57,8.962 0.365,5.189 -1.715,0.815 -4.953,2.354 -3.73,4.927 -5.403,5.723 -6.626,3.149 -10.379,4.934 -11.072,3.476 0.08,-1.825 0.772,-0.368 Z" style="fill:none;stroke:#00a755;stroke-width:0.2;stroke-linecap:butt;stroke-linejoin:miter;stroke-miterlimit:10;stroke-dasharray:none;stroke-opacity:1" id="path272"></path></g><g id="g274" transform="translate(290.7422,296.1641)"><path d="m 0,0 c -2.808,1.336 -5.791,0.929 -6.664,-0.907 -0.872,-1.835 0.695,-4.405 3.503,-5.74 C -0.355,-7.98 2.628,-7.576 3.501,-5.74 4.374,-3.904 2.806,-1.333 0,0 m -2.529,-5.317 c -1.865,0.885 -2.951,2.498 -2.429,3.599 0.524,1.101 2.46,1.277 4.326,0.39 1.864,-0.888 2.952,-2.5 2.428,-3.602 -0.523,-1.1 -2.46,-1.275 -4.325,-0.387" style="fill:#00a755;fill-opacity:1;fill-rule:nonzero;stroke:#00a755;stroke-width:0.2;stroke-linecap:butt;stroke-linejoin:miter;stroke-miterlimit:10;stroke-dasharray:none;stroke-opacity:1" id="path276"></path></g><g id="g278" transform="translate(342.7524,301.7725)"><path d="m 0,0 0.817,-1.564 8.07,4.21 4.358,-8.351 1.647,0.864 -4.478,8.579 c 0,0 -0.611,1.425 -2.131,0.593 z" style="fill:#00a755;fill-opacity:1;fill-rule:nonzero;stroke:none" id="path280"></path></g><g id="g282" transform="translate(355.3306,293.4658)"><path d="m 0,0 -3.456,6.62 -1.636,-0.854 3.454,-6.62 -1.76,-0.919 -3.454,6.62 -1.636,-0.855 3.454,-6.618 -1.987,-1.037 0.724,-1.39 L 4.42,0.54 3.693,1.929 Z" style="fill:#00a755;fill-opacity:1;fill-rule:nonzero;stroke:none" id="path284"></path></g><g id="g286" transform="translate(310.3354,289.3896)"><path d="m 0,0 -11.609,3.141 -0.418,-1.543 4.875,-1.32 -1.44,-5.324 1.767,-0.478 1.441,5.325 4.966,-1.344 z" style="fill:#00a755;fill-opacity:1;fill-rule:nonzero;stroke:none" id="path288"></path></g><g id="g290" transform="translate(310.3354,289.3896)"><path d="m 0,0 -11.609,3.141 -0.418,-1.543 4.875,-1.32 -1.44,-5.324 1.767,-0.478 1.441,5.325 4.966,-1.344 z" style="fill:none;stroke:#00a755;stroke-width:0.2;stroke-linecap:butt;stroke-linejoin:miter;stroke-miterlimit:10;stroke-dasharray:none;stroke-opacity:1" id="path292"></path></g><g id="g294" transform="translate(307.2583,297.9043)"><path d="m 0,0 4.275,-1.156 0.412,1.52 -10.179,2.755 -0.41,-1.521 4.156,-1.124 c -0.167,-0.666 -1.087,-3.092 -5.573,-2.75 l 0.126,-1.604 c 0,0 3.422,-0.189 5.484,1.222 0,0 1.148,-2.44 4.469,-4.01 l 0.844,1.402 c 0,0 -4.598,2.146 -3.604,5.266" style="fill:#00a755;fill-opacity:1;fill-rule:nonzero;stroke:#00a755;stroke-width:0.2;stroke-linecap:butt;stroke-linejoin:miter;stroke-miterlimit:10;stroke-dasharray:none;stroke-opacity:1" id="path296"></path></g><g id="g298" transform="translate(323.9106,297.7627)"><path d="M 0,0 V -6.338 H -1.185 V 0 h -1.802 v -11.394 h -4.598 v 9.867 h 3.359 l -0.008,1.535 h -5.114 v -11.189 c 0,0 -0.03,-1.762 1.459,-1.732 h 4.902 v -2.911 h 1.802 v 7.798 H 0 v -7.798 H 1.802 V 0 Z" style="fill:#00a755;fill-opacity:1;fill-rule:nonzero;stroke:none" id="path300"></path></g><g id="g302" transform="translate(323.9106,297.7627)"><path d="M 0,0 V -6.338 H -1.185 V 0 h -1.802 v -11.394 h -4.598 v 9.867 h 3.359 l -0.008,1.535 h -5.114 v -11.189 c 0,0 -0.03,-1.762 1.459,-1.732 h 4.902 v -2.911 h 1.802 v 7.798 H 0 v -7.798 H 1.802 V 0 Z" style="fill:none;stroke:#00a755;stroke-width:0.2;stroke-linecap:butt;stroke-linejoin:miter;stroke-miterlimit:10;stroke-dasharray:none;stroke-opacity:1" id="path304"></path></g><g id="g306" transform="translate(341.9771,297.8018)"><path d="m 0,0 -1.418,-0.396 -1.119,4 -1.808,-0.504 2.855,-10.199 1.806,0.505 -1.26,4.505 1.418,0.398 z" style="fill:#00a755;fill-opacity:1;fill-rule:nonzero;stroke:none" id="path308"></path></g><g id="g310" transform="translate(341.9771,297.8018)"><path d="m 0,0 -1.418,-0.396 -1.119,4 -1.808,-0.504 2.855,-10.199 1.806,0.505 -1.26,4.505 1.418,0.398 z" style="fill:none;stroke:#00a755;stroke-width:0.2;stroke-linecap:butt;stroke-linejoin:miter;stroke-miterlimit:10;stroke-dasharray:none;stroke-opacity:1" id="path312"></path></g><g id="g314" transform="translate(333.7466,298.668)"><path d="m 0,0 -0.4,1.428 -1.807,-0.506 0.4,-1.429 -3.282,-0.918 0.442,-1.577 8.359,2.34 -0.441,1.576 z" style="fill:#00a755;fill-opacity:1;fill-rule:nonzero;stroke:none" id="path316"></path></g><g id="g318" transform="translate(333.7466,298.668)"><path d="m 0,0 -0.4,1.428 -1.807,-0.506 0.4,-1.429 -3.282,-0.918 0.442,-1.577 8.359,2.34 -0.441,1.576 z" style="fill:none;stroke:#00a755;stroke-width:0.2;stroke-linecap:butt;stroke-linejoin:miter;stroke-miterlimit:10;stroke-dasharray:none;stroke-opacity:1" id="path320"></path></g><g id="g322" transform="translate(333.3794,296.4561)"><path d="m 0,0 c -2.153,-0.603 -3.477,-2.602 -2.954,-4.464 0.519,-1.862 2.688,-2.884 4.842,-2.282 2.152,0.603 3.474,2.601 2.954,4.464 C 4.32,-0.419 2.152,0.604 0,0 m 1.506,-5.379 c -1.189,-0.332 -2.402,0.296 -2.712,1.404 -0.311,1.109 0.4,2.276 1.589,2.608 1.186,0.332 2.4,-0.297 2.711,-1.404 C 3.402,-3.88 2.692,-5.047 1.506,-5.379" style="fill:#00a755;fill-opacity:1;fill-rule:nonzero;stroke:#00a755;stroke-width:0.2;stroke-linecap:butt;stroke-linejoin:miter;stroke-miterlimit:10;stroke-dasharray:none;stroke-opacity:1" id="path324"></path></g><g id="g326" transform="translate(331.9331,287.7334)"><path d="m 0,0 0.431,-1.539 8.658,2.423 1.147,-4.102 1.875,0.527 -1.151,4.114 c 0,0 -0.336,1.595 -2.064,1.075 z" style="fill:#00a755;fill-opacity:1;fill-rule:nonzero;stroke:none" id="path328"></path></g><g id="g330" transform="translate(331.9331,287.7334)"><path d="m 0,0 0.431,-1.539 8.658,2.423 1.147,-4.102 1.875,0.527 -1.151,4.114 c 0,0 -0.336,1.595 -2.064,1.075 z" style="fill:none;stroke:#00a755;stroke-width:0.2;stroke-linecap:butt;stroke-linejoin:miter;stroke-miterlimit:10;stroke-dasharray:none;stroke-opacity:1" id="path332"></path></g><g id="g334" transform="translate(366.0903,304.8213)"><path d="m 0,0 c 0,-1.03 -0.835,-1.864 -1.864,-1.864 -1.03,0 -1.865,0.834 -1.865,1.864 0,1.029 0.835,1.864 1.865,1.864 C -0.835,1.864 0,1.029 0,0" style="fill:#00a755;fill-opacity:1;fill-rule:nonzero;stroke:none" id="path336"></path></g><g id="g338" transform="translate(280.7134,304.8213)"><path d="m 0,0 c 0,-1.03 -0.835,-1.864 -1.864,-1.864 -1.03,0 -1.865,0.834 -1.865,1.864 0,1.029 0.835,1.864 1.865,1.864 C -0.835,1.864 0,1.029 0,0" style="fill:#00a755;fill-opacity:1;fill-rule:nonzero;stroke:none" id="path340"></path></g></g></g></g></g></g></g></svg>
